<?xml version="1.0" encoding="UTF-8"?>
<svg width="226px" height="55px" viewBox="0 0 226 55" version="1.1" xmlns="http://www.w3.org/2000/svg" xmlns:xlink="http://www.w3.org/1999/xlink">
    <title>logo-crew-white</title>
    <defs>
        <linearGradient x1="50%" y1="0.259506119%" x2="50%" y2="100%" id="linearGradient-1">
            <stop stop-color="#7087D0" offset="0%"></stop>
            <stop stop-color="#6C7FCA" offset="100%"></stop>
        </linearGradient>
        <linearGradient x1="50%" y1="0%" x2="50%" y2="97.8201486%" id="linearGradient-2">
            <stop stop-color="#626DBE" offset="0%"></stop>
            <stop stop-color="#5F66BA" offset="100%"></stop>
        </linearGradient>
        <linearGradient x1="50%" y1="0%" x2="50%" y2="100%" id="linearGradient-3">
            <stop stop-color="#697AC7" offset="0%"></stop>
            <stop stop-color="#6573C3" offset="100%"></stop>
        </linearGradient>
        <polygon id="path-4" points="0.24432 0.14772 40.34712 0.14772 40.34712 16.8 0.24432 16.8"></polygon>
    </defs>
    <g id="logo-crew-white" stroke="none" stroke-width="1" fill="none" fill-rule="evenodd">
        <g id="Logo-White" transform="translate(4.000000, 4.000000)">
            <path d="M60.85776,45.1273061 L60.85776,1.13652 L71.2567358,1.13652 L71.2567358,7.22892 C74.0294683,2.40972 81.0479473,0.00012 86.6511775,0.00012 C88.5906154,0.00012 91.8283011,0.64894424 93.4924322,1.24414424 L92.5767914,11.3985442 C83.826339,8.75801463 71.6733831,12.4620606 71.6733831,23.72052 L71.6733831,45.24612 L60.85776,45.1273061 Z" id="Fill-1" fill="#FFFFFF"></path>
            <path d="M118.13436,8.93556 C115.04796,8.93556 112.43436,9.82836 110.29476,11.61516 C108.15516,13.40316 106.73316,15.84036 106.02996,18.92676 L129.58836,18.92676 C129.15396,15.84036 127.89396,13.40316 125.80956,11.61516 C123.72396,9.82836 121.16556,8.93556 118.13436,8.93556 M139.98516,22.25796 C139.98516,23.44956 139.87596,25.01916 139.65996,26.96796 L106.02996,26.96796 C106.73316,30.00276 108.20916,32.45196 110.45796,34.32036 C112.70436,36.18876 115.72356,37.12236 119.51436,37.12236 C124.87596,37.12236 129.72156,35.60796 134.05596,32.57316 L138.27876,40.12836 C132.80916,44.19036 126.41916,46.22076 119.10876,46.22076 C115.10076,46.22076 111.54036,45.57036 108.42636,44.27076 C105.31116,42.97116 102.80796,41.22516 100.91196,39.03156 C99.01596,36.83916 97.59516,34.40196 96.64836,31.71996 C95.70036,29.04036 95.22636,26.18436 95.22636,23.15076 C95.22636,16.48956 97.35156,10.98036 101.60436,6.61956 C105.85356,2.26116 111.36276,0.08076 118.13436,0.08076 C124.52316,0.08076 129.76236,2.07036 133.85196,6.05196 C137.94156,10.03116 139.98516,15.43356 139.98516,22.25796" id="Fill-3" fill="#FFFFFF"></path>
            <polygon id="Fill-5" fill="#FFFFFF" points="157.125 45.16524 142.0974 1.13724 153.1458 1.13724 162.405 31.03044 172.8846 1.13724 180.2766 1.13724 190.9998 31.03044 200.0154 1.13724 211.0638 1.13724 196.2798 45.16524 187.0998 45.16524 176.6202 16.32804 166.305 45.16524"></polygon>
            <g id="Rectangle" transform="translate(0.000000, 12.000000)">
                <g id="Mask" transform="translate(0.000000, 0.661920)">
                    <path d="M21.17916,5.1072 C21.80916,3.5892 22.72236,2.2128 23.93796,0.984 C24.28836,0.63 24.65556,0.306 25.03116,2.66453526e-15 L5.91151819,2.66453526e-15 C5.15551819,1.5936 4.59031819,3.294 4.22431819,5.1072 L21.17916,5.1072 Z" id="Fill-7" fill="url(#linearGradient-1)"></path>
                    <path d="M24.88116,20.98152 C24.51396,20.67432 24.15756,20.35032 23.81556,19.99392 C22.64196,18.76632 21.75756,17.39112 21.14916,15.87432 L4.22911819,15.87432 C4.59751819,17.68392 5.16391819,19.38552 5.92351819,20.98152 L24.88116,20.98152 Z" id="Fill-9" fill="url(#linearGradient-2)"></path>
                    <path d="M0.1128,7.93728 C0.0396,8.76768 -1.72306613e-13,9.61608 -1.72306613e-13,10.48848 C-1.72306613e-13,11.36208 0.0408,12.21168 0.1152,13.04448 L20.36724,13.04448 C20.23404,12.22488 20.16084,11.37528 20.16084,10.48848 C20.16084,9.60288 20.23644,8.75568 20.37444,7.93728 L0.1128,7.93728 Z" id="Fill-13" fill="url(#linearGradient-3)"></path>
                </g>
            </g>
            <path d="M33.075,9.83208 L33.075,9.84288 C33.1854,9.84048 33.291,9.82848 33.4002,9.82848 C35.8386,9.82848 38.0718,10.45248 40.1034,11.69688 C42.1338,12.94368 43.8006,14.65008 45.099,16.81488 L53.709,12.18408 C51.9222,8.34048 49.1874,5.36088 45.5046,3.24888 C41.8218,1.13688 37.7334,0.08088 33.2394,0.08088 C26.2518,0.08088 20.5662,2.23368 16.1802,6.53928 C15.135,7.56408 14.2218,8.66568 13.4262,9.83208 L33.075,9.83208 Z" id="Fill-11" fill="#FFFFFF"></path>
            <g id="Group-18" transform="translate(13.200000, 29.421120)">
                <mask id="mask-5" fill="white">
                    <use xlink:href="#path-4"></use>
                </mask>
                <g id="Clip-17"></g>
                <path d="M26.82192,5.14332 C24.62832,6.41652 22.31352,7.05252 19.87752,7.05252 L0.24432,7.05252 C1.02672,8.19852 1.91712,9.28452 2.93952,10.30092 C7.29792,14.63412 12.89112,16.80012 19.71312,16.80012 C24.20832,16.80012 28.29672,15.74412 31.98072,13.63092 C35.66232,11.51892 38.45112,8.70492 40.34712,5.18292 L31.73712,0.14772 C30.65232,2.20572 29.01552,3.87012 26.82192,5.14332" id="Fill-16" fill="#FFFFFF" mask="url(#mask-5)"></path>
            </g>
            <path d="M212.78088,34.799796 C209.91888,34.799796 207.59928,37.114596 207.59928,39.969396 C207.59928,42.824196 209.91888,45.138996 212.78088,45.138996 C215.64048,45.138996 217.96008,42.824196 217.96008,39.969396 C217.96008,37.114596 215.64048,34.799796 212.78088,34.799796 Z" id="Fill-1" fill="#FFFFFF"></path>
        </g>
    </g>
</svg>